<svg width="138" height="107" viewBox="0 0 138 107" fill="none" xmlns="http://www.w3.org/2000/svg">
<path opacity="0.5" fill-rule="evenodd" clip-rule="evenodd" d="M55.1181 12.0007C67.1838 11.9446 78.7501 15.4351 87.4152 23.7652C97.9095 33.8539 107.086 46.3664 105.896 60.8157C104.5 77.7626 96.2375 94.8454 80.9323 102.497C65.3793 110.273 46.0646 107.461 31.4757 98.0231C18.6922 89.7536 15.0302 73.8243 13.346 58.7765C11.9391 46.2066 14.7442 33.5298 23.1979 24.0635C31.1416 15.1682 43.1392 12.0563 55.1181 12.0007Z" fill="#FDF8F8"/>
<g opacity="0.8">
<path d="M60 88.0625C74.3358 88.0625 86 76.3982 86 62.0625C86 52.4221 80.7204 44.0023 72.9047 39.5149C71.4497 38.6796 69.75 39.811 69.75 41.4887V43.8368C69.75 44.6812 70.207 45.4522 70.907 45.9246C73.3531 47.575 75.3978 49.7628 76.8809 52.3275C78.5921 55.2868 79.4954 58.644 79.5 62.0625C79.5 72.8167 70.7542 81.5625 60 81.5625C49.2458 81.5625 40.5 72.8167 40.5 62.0625C40.5043 58.6439 41.4074 55.2866 43.1187 52.3272C44.6017 49.7625 46.6466 47.5748 49.0928 45.9245C49.7929 45.4522 50.25 44.6812 50.25 43.8366V41.4887C50.25 39.811 48.5503 38.6796 47.0953 39.5149C39.2796 44.0023 34 52.4221 34 62.0625C34 76.3982 45.6643 88.0625 60 88.0625Z" fill="#A68AD8"/>
<path d="M56.75 28.6761C56.75 27.3707 57.8082 26.3125 59.1136 26.3125H60.8864C62.1918 26.3125 63.25 27.3707 63.25 28.6761V56.4488C63.25 57.7542 62.1918 58.8125 60.8864 58.8125H59.1136C57.8082 58.8125 56.75 57.7542 56.75 56.4488V28.6761Z" fill="#B39DDB"/>
</g>
<g opacity="0.7">
<path d="M17.9298 89.2581C16.9933 90.2505 15.8704 91.0486 14.6252 91.6066C13.38 92.1646 12.037 92.4716 10.673 92.5101C9.30907 92.5485 7.95091 92.3177 6.67624 91.8308C5.40157 91.3439 4.23539 90.6105 3.24444 89.6725C2.25349 88.7345 1.45719 87.6103 0.901114 86.3642C0.345034 85.1182 0.0400749 83.7747 0.00369098 82.4107C-0.032693 81.0467 0.200216 79.6889 0.689078 78.415C1.17794 77.141 1.91317 75.976 2.85271 74.9865L17.9298 89.2581Z" fill="url(#paint0_linear_1925_4525)"/>
<path d="M17.9426 89.2445C18.974 88.1549 16.435 84.0769 12.2715 80.1358C8.10808 76.1948 3.89686 73.8833 2.86549 74.9729C1.83413 76.0624 4.37318 80.1405 8.53662 84.0815C12.7001 88.0225 16.9113 90.3341 17.9426 89.2445Z" fill="#FDE2E4"/>
<path d="M8.61693 83.9966C4.50777 80.107 1.98127 76.0841 2.90767 74.9324C2.89315 74.9454 2.87886 74.9587 2.86543 74.9728C1.83406 76.0624 4.37309 80.1405 8.53654 84.0815C12.7 88.0225 16.9112 90.3341 17.9426 89.2445C17.956 89.2303 17.9685 89.2153 17.9807 89.2001C16.8815 90.1882 12.7261 87.8863 8.61693 83.9966Z" fill="#FEF3F4"/>
</g>
<g opacity="0.8">
<path d="M96 26.5255L110.151 28.8447L124.933 23.0202L110.781 20.7017L96 26.5255Z" fill="#FADDE1"/>
<path d="M96 26.5255L106.956 0L110.781 20.7017L96 26.5255Z" fill="#FBE4E7"/>
<path d="M106.956 0L124.933 23.0202L110.781 20.7017L106.956 0Z" fill="#FDF1F3"/>
</g>
<g opacity="0.6">
<path d="M1 14.3877L7.28756 23.3265L17.8345 22.1018L11.5469 13.1629L1 14.3877Z" fill="#FF97B7"/>
<path d="M15.8056 3L22.0938 11.9388L17.8344 22.1018L11.5469 13.163L15.8056 3Z" fill="#FFB6CD"/>
<path d="M11.547 13.163L15.8057 3L5.25876 4.22474L1 14.3877L11.547 13.163Z" fill="#FFD5E2"/>
</g>
<g opacity="0.2">
<path d="M119.969 86.9357C119.301 86.6899 118.581 86.6166 117.877 86.7225L108.21 88.0811C107.916 88.1258 107.617 88.0955 107.338 87.9933L110.85 89.3095C111.129 89.4118 111.429 89.442 111.722 89.3974L121.389 88.0387C122.094 87.9328 122.813 88.0062 123.482 88.252L119.969 86.9357Z" fill="url(#paint1_linear_1925_4525)"/>
<path d="M132.279 64.0192L110.299 67.1083C108.909 67.3036 107.636 68.9352 107.455 70.7525L106.022 85.1441C105.841 86.9615 106.82 88.2764 108.21 88.0811L117.877 86.7225C118.625 86.6064 119.39 86.6965 120.09 86.9829C120.79 87.2694 121.398 87.7414 121.85 88.3481L124.849 92.196C124.922 92.2972 125.021 92.3763 125.136 92.4245C125.251 92.4727 125.377 92.4882 125.501 92.4692C126.015 92.3969 126.56 91.8034 126.638 91.0164L126.861 88.7698L126.941 87.9656C127.081 86.5558 128.069 85.2901 129.147 85.1386L130.19 84.9921C131.579 84.7968 132.853 83.1651 133.034 81.3477L134.468 66.9561C134.649 65.1388 133.668 63.8239 132.279 64.0192Z" fill="url(#paint2_linear_1925_4525)"/>
<path d="M132.279 64.0192L110.299 67.1083C109.658 67.2265 109.077 67.5602 108.652 68.0541C109.046 67.668 109.548 67.4107 110.091 67.3164L132.07 64.2274C133.697 64.1071 134.489 65.2069 134.26 67.1643L132.833 81.15C132.652 82.9674 131.378 84.5991 129.988 84.7944L128.946 84.9409C127.868 85.0924 126.88 86.3581 126.74 87.7679L126.66 88.5721L126.43 91.2246C126.395 91.5889 126.254 91.935 126.024 92.2196C126.377 91.9133 126.597 91.4819 126.638 91.0165L126.861 88.7699L126.941 87.9656C127.081 86.5558 128.069 85.2901 129.147 85.1386L130.19 84.9921C131.579 84.7968 132.853 83.1651 133.034 81.3477L134.468 66.9561C134.649 65.1388 133.668 63.8239 132.279 64.0192Z" fill="#A461FE"/>
<path d="M137.999 67.9182C138.018 67.0536 137.744 66.0891 136.991 65.5895C136.992 65.5072 133.294 64.1748 133.15 64.1071C134.254 64.5398 134.583 65.8782 134.467 66.9561L133.034 81.3477C133.017 81.505 132.994 81.6612 132.962 81.8164C132.795 82.6461 132.407 83.4153 131.839 84.0429C130.157 85.9039 128.701 84.0996 127.318 86.6758C126.979 87.2871 126.921 88.0858 126.861 88.7699L126.637 91.0165C126.577 91.7263 125.969 92.658 125.163 92.4353L128.675 93.7515C128.815 93.7922 128.962 93.7974 129.104 93.7665C129.247 93.7357 129.379 93.6698 129.489 93.5749L129.489 93.5748C129.677 93.423 129.833 93.2347 129.946 93.0213C130.06 92.8078 130.129 92.5736 130.15 92.3327L130.373 90.0861C130.435 89.4022 130.491 88.6053 130.828 87.9952C131.193 87.2717 131.826 86.5855 132.659 86.4549C132.849 86.4234 133.785 86.3102 133.953 86.2571C134.69 86.0555 135.29 85.516 135.72 84.8993C136.121 84.3207 136.389 83.6609 136.505 82.9669C136.521 82.8663 136.536 82.7654 136.546 82.664L137.98 68.2724C137.992 68.1547 137.998 68.0365 137.999 67.9182Z" fill="url(#paint3_linear_1925_4525)"/>
<path d="M130.294 73.4867C130.343 71.8672 129.192 71.7365 127.985 71.2733C129.939 72.2445 128.468 76.1566 126.362 75.6052C126.795 75.7214 127.898 76.3065 128.357 76.1911C129.562 75.9602 130.265 74.6341 130.294 73.4867Z" fill="url(#paint4_linear_1925_4525)"/>
<path d="M127.396 71.2138C126.456 71.3459 125.595 72.4496 125.473 73.6787C125.35 74.9079 126.012 75.7967 126.952 75.6646C127.892 75.5325 128.754 74.4295 128.876 73.2004C128.998 71.9713 128.335 71.0817 127.396 71.2138Z" fill="#F9FEFA"/>
<path d="M122.16 74.6641C122.21 73.0446 121.059 72.9138 119.851 72.4506C121.806 73.4218 120.334 77.3339 118.229 76.7825C118.662 76.8987 119.764 77.4839 120.223 77.3684C121.428 77.1376 122.131 75.8115 122.16 74.6641Z" fill="url(#paint5_linear_1925_4525)"/>
<path d="M119.262 72.3912C118.322 72.5233 117.461 73.627 117.339 74.8561C117.216 76.0852 117.879 76.974 118.819 76.8419C119.758 76.7099 120.62 75.6069 120.742 74.3778C120.865 73.1487 120.202 72.2591 119.262 72.3912Z" fill="#F9FEFA"/>
<path d="M114.024 75.8414C114.074 74.2219 112.923 74.0912 111.716 73.628C113.67 74.5992 112.198 78.5113 110.093 77.9599C110.526 78.0761 111.628 78.6612 112.088 78.5458C113.292 78.3149 113.995 76.9888 114.024 75.8414Z" fill="url(#paint6_linear_1925_4525)"/>
<path d="M111.126 73.5685C110.186 73.7006 109.325 74.8044 109.203 76.0335C109.081 77.2626 109.743 78.1514 110.683 78.0193C111.623 77.8872 112.484 76.7843 112.606 75.5552C112.729 74.3261 112.066 73.4365 111.126 73.5685Z" fill="#F9FEFA"/>
</g>
<defs>
<linearGradient id="paint0_linear_1925_4525" x1="1.30567" y1="84.133" x2="11.9904" y2="83.3783" gradientUnits="userSpaceOnUse">
<stop stop-color="#FFB8DE"/>
<stop offset="0.20377" stop-color="#FEC3E0"/>
<stop offset="0.68981" stop-color="#FDDAE3"/>
<stop offset="1" stop-color="#FDE2E4"/>
</linearGradient>
<linearGradient id="paint1_linear_1925_4525" x1="104.663" y1="93.38" x2="116.714" y2="87.4846" gradientUnits="userSpaceOnUse">
<stop stop-color="#914AFE"/>
<stop offset="0.42514" stop-color="#7D32FE"/>
<stop offset="1" stop-color="#5E0BFE"/>
</linearGradient>
<linearGradient id="paint2_linear_1925_4525" x1="108.523" y1="88.3533" x2="131.763" y2="66.6791" gradientUnits="userSpaceOnUse">
<stop stop-color="#914AFE"/>
<stop offset="0.42514" stop-color="#7D32FE"/>
<stop offset="1" stop-color="#5E0BFE"/>
</linearGradient>
<linearGradient id="paint3_linear_1925_4525" x1="135.613" y1="71.3386" x2="128.764" y2="91.3653" gradientUnits="userSpaceOnUse">
<stop stop-color="#914AFE"/>
<stop offset="0.42514" stop-color="#7D32FE"/>
<stop offset="1" stop-color="#5E0BFE"/>
</linearGradient>
<linearGradient id="paint4_linear_1925_4525" x1="127.714" y1="77.2803" x2="128.704" y2="73.106" gradientUnits="userSpaceOnUse">
<stop stop-color="#914AFE"/>
<stop offset="0.42514" stop-color="#7D32FE"/>
<stop offset="1" stop-color="#5E0BFE"/>
</linearGradient>
<linearGradient id="paint5_linear_1925_4525" x1="119.58" y1="78.4577" x2="120.57" y2="74.2834" gradientUnits="userSpaceOnUse">
<stop stop-color="#914AFE"/>
<stop offset="0.42514" stop-color="#7D32FE"/>
<stop offset="1" stop-color="#5E0BFE"/>
</linearGradient>
<linearGradient id="paint6_linear_1925_4525" x1="109.764" y1="79.7365" x2="112.77" y2="75.3439" gradientUnits="userSpaceOnUse">
<stop stop-color="#914AFE"/>
<stop offset="0.42514" stop-color="#7D32FE"/>
<stop offset="1" stop-color="#5E0BFE"/>
</linearGradient>
</defs>
</svg>
