<svg xmlns="http://www.w3.org/2000/svg" viewBox="0 0 208.58 65.53"><defs><style>.cls-1{fill:#4d4d4f;}.cls-2{fill:#f2634d;}</style></defs><title>Dokan</title><g id="Layer_2" data-name="Layer 2"><g id="Layer_1-2" data-name="Layer 1"><path class="cls-1" d="M93.67,48.73c0,7.77-5.44,12.44-17,12.44s-17-4.67-17-12.44V35.5c0-7.77,5.45-12.44,17-12.44s17,4.67,17,12.44ZM84.48,36.57c0-4.32-1.34-6.79-7.85-6.79s-7.84,2.47-7.84,6.79v11.1c0,4.31,1.34,6.78,7.84,6.78s7.85-2.47,7.85-6.78Z"/><path class="cls-1" d="M119.48,39.82c10.54,3.75,10.89,12.3,15.21,20.08a37,37,0,0,1-5.24.92c-9.75,0-4.24-14.71-18.8-17.11V60.82s-9.2,0-9.2-4.6V6.3s9.2,0,9.2,4.6V36.64c4.17-.64,6.5-3.75,9.68-9.76,1.35-2.55,4-3.47,6.79-3.47a17.1,17.1,0,0,1,5,.85C128.25,29.56,125.85,37.27,119.48,39.82Z"/><path class="cls-1" d="M159.51,34.73c0-2.55-1.42-4.81-6.86-4.81-5.94,0-11.31,2-11.31,8-2.06-2.76-2.69-4.95-2.69-6.86,0-6.15,8.27-8,14.07-8,10.39,0,15.91,4.38,15.91,12.09V61a11.8,11.8,0,0,0-5.45-1.13c-3.53,0-7.07,1.27-11.1,1.27-7.28,0-14.42-2.69-14.42-11.1C137.66,36.85,156.61,40.31,159.51,34.73Zm.21,7.21c-1.63,3.75-12.94,1.7-12.94,8,0,3.18,2.33,4.81,6.36,4.81a17.56,17.56,0,0,0,6.58-1.28Z"/><path class="cls-1" d="M199.39,35.79c0-3.75-1.77-5.87-6.79-5.87a24.82,24.82,0,0,0-6.72,1V60.82s-9.19,0-9.19-4.6V23.06a14.81,14.81,0,0,0,6.36,1.48c3.47,0,6.72-1.48,10.54-1.48,7.28,0,15,2.47,15,11.67V60.82s-9.19-.14-9.19-4.6Z"/><path class="cls-2" d="M4.09,3.25s32.8-2.41,32.8,25.9-8.67,34-16.27,35.79c0,0,31.62,7.62,31.62-32.21S11.91-1.35,4.09,3.25Z"/><path class="cls-2" d="M30.76,51.41S27.6,62.4,18,63.79,6.67,60,0,60.35a5.34,5.34,0,0,1,4.84-5.89c5.39-.73,15.48.69,22.19-3.55,0,0,4-2.08,4.75-3.09Z"/><path class="cls-2" d="M3.59,5.23V18.86h0V52.79a7.68,7.68,0,0,1,1-.2,52.62,52.62,0,0,1,5.69-.3c2,0,4.13-.08,6.29-.27V36c0-5.31-.33-10.75,0-16a8.73,8.73,0,0,1,5.49-7.13,9,9,0,0,1,7.33.49A43.32,43.32,0,0,0,3.59,5.23Z"/></g></g></svg>