<svg width="346" height="253" viewBox="0 0 346 253" fill="none" xmlns="http://www.w3.org/2000/svg">
<mask id="mask0_1973_1165" style="mask-type:alpha" maskUnits="userSpaceOnUse" x="0" y="0" width="346" height="253">
<rect width="346" height="253" rx="5" fill="white"/>
</mask>
<g mask="url(#mask0_1973_1165)">
<circle opacity="0.8" cx="280.5" cy="181.5" r="147.5" fill="url(#paint0_linear_1973_1165)"/>
<path opacity="0.3" d="M156.593 144.09H88.8062C86.6072 144.09 84.8242 145.867 84.8242 148.058V176.195C84.8242 178.386 86.6072 180.162 88.8062 180.162H95.846C95.4383 183.26 94.9021 187.703 95.1959 187.703C95.5081 187.703 98.9241 183.029 100.989 180.162H156.593C158.792 180.162 160.574 178.386 160.574 176.195V148.059C160.576 145.869 158.793 144.09 156.593 144.09Z" fill="#DAEEF7"/>
<path d="M159.833 136.613H92.0446C89.8455 136.613 88.0625 138.389 88.0625 140.58V168.716C88.0625 170.907 89.8455 172.683 92.0446 172.683H99.0844C98.6766 175.78 98.1405 180.224 98.4343 180.224C98.7465 180.224 102.162 175.549 104.228 172.683H159.831C162.03 172.683 163.813 170.907 163.813 168.716V140.58C163.814 138.389 162.032 136.613 159.833 136.613Z" fill="#A0CFE0"/>
<path d="M108.245 161.781C112.144 157.896 112.144 151.599 108.245 147.715C104.346 143.83 98.0244 143.83 94.1252 147.715C90.2265 151.599 90.2265 157.896 94.1252 161.781C98.0244 165.665 104.346 165.665 108.245 161.781Z" fill="white"/>
<path d="M102.767 159.758H99.8359V162.675H102.767V159.758Z" fill="#FFC0BB"/>
<path d="M102.768 161.508V159.76H99.8379V161.247C100.468 161.583 101.401 161.778 102.768 161.508Z" fill="#F99893"/>
<path d="M107.389 154.54C107.083 154.39 106.727 154.417 106.407 154.578C106.517 151.702 104.157 149.281 101.187 149.383C98.2152 149.281 95.8563 151.7 95.9663 154.578C95.6452 154.417 95.2897 154.39 94.9839 154.54C94.3971 154.828 94.215 155.652 94.5761 156.383C94.9389 157.111 95.707 157.469 96.2938 157.182C96.3756 157.142 96.4479 157.09 96.5145 157.032C96.85 159.411 98.8453 161.194 101.187 161.16C103.528 161.194 105.522 159.411 105.859 157.032C105.924 157.09 105.997 157.142 106.079 157.182C106.665 157.469 107.434 157.111 107.797 156.383C108.157 155.654 107.976 154.828 107.389 154.54Z" fill="#FFC0BB"/>
<path d="M97.6193 148.244C97.6193 148.244 99.0897 147.004 102.435 147.204C105.779 147.404 106.415 149.143 106.605 151.625L106.41 154.58C106.41 154.58 105.541 153.691 104.412 151.224C104.412 151.224 102.54 153.317 101.725 153.069C100.909 152.821 102.034 151.314 102.034 151.314C102.034 151.314 98.2189 154.583 95.9731 154.578C95.9731 154.578 94.7836 150.751 96.4531 149.348C96.4531 149.348 95.1962 149.408 95.1296 149.161C95.0629 148.915 95.7291 148.547 96.9371 148.685C96.9371 148.685 96.0767 147.007 96.5582 146.832C97.0342 146.66 97.6193 148.244 97.6193 148.244Z" fill="#07085B"/>
<path d="M103.107 157.939C102.977 158.515 102.314 158.97 101.502 158.994C100.69 159.019 99.9997 158.607 99.8359 158.039L103.107 157.939Z" fill="white"/>
<path d="M153.951 146.449H115.003C114.785 146.449 114.609 146.275 114.609 146.058V145.113C114.609 144.896 114.785 144.722 115.003 144.722H153.951C154.168 144.722 154.344 144.896 154.344 145.113V146.058C154.344 146.273 154.168 146.449 153.951 146.449Z" fill="white"/>
<path d="M123.6 151.009H115.003C114.785 151.009 114.609 150.834 114.609 150.618V149.673C114.609 149.456 114.785 149.281 115.003 149.281H123.6C123.817 149.281 123.992 149.456 123.992 149.673V150.618C123.992 150.834 123.817 151.009 123.6 151.009Z" fill="white"/>
<path d="M153.95 151.009H127.926C127.709 151.009 127.533 150.834 127.533 150.618V149.673C127.533 149.456 127.709 149.281 127.926 149.281H153.95C154.167 149.281 154.342 149.456 154.342 149.673V150.618C154.342 150.834 154.167 151.009 153.95 151.009Z" fill="white"/>
<path d="M134.743 155.57H115.003C114.785 155.57 114.609 155.395 114.609 155.18V154.233C114.609 154.017 114.785 153.842 115.003 153.842H134.743C134.961 153.842 135.136 154.017 135.136 154.233V155.18C135.136 155.395 134.961 155.57 134.743 155.57Z" fill="white"/>
<path d="M153.951 155.57H138.531C138.314 155.57 138.139 155.395 138.139 155.18V154.233C138.139 154.017 138.314 153.842 138.531 153.842H153.951C154.168 153.842 154.344 154.017 154.344 154.233V155.18C154.344 155.395 154.168 155.57 153.951 155.57Z" fill="white"/>
<path d="M153.951 160.13H115.003C114.785 160.13 114.609 159.955 114.609 159.738V158.793C114.609 158.577 114.785 158.402 115.003 158.402H153.951C154.168 158.402 154.344 158.577 154.344 158.793V159.738C154.344 159.955 154.168 160.13 153.951 160.13Z" fill="white"/>
<path d="M192.864 100.981L195.334 116.413L200.552 95.8393C200.552 95.8393 193.239 92.3036 192.916 93.5887C192.593 94.8738 192.864 100.981 192.864 100.981Z" fill="#07085B"/>
<path d="M234.378 134.195L236.635 160.873L213.004 159.747L215.73 136.122L234.378 134.195Z" fill="#FFC0BB"/>
<path d="M214.432 147.359L215.727 136.124L234.375 134.195L235.157 143.433C231.45 147.112 224.784 150.93 214.432 147.359Z" fill="#F99893"/>
<path d="M199.942 116.219C201.363 119.148 200.609 122.439 198.258 123.571C195.906 124.703 192.849 123.248 191.429 120.32C190.008 117.391 190.762 114.1 193.113 112.969C195.464 111.837 198.522 113.291 199.942 116.219Z" fill="#F99893"/>
<path d="M199.773 129.755C198.082 125.981 197.093 121.923 196.514 118.364C196.391 117.6 196.222 116.845 196.04 116.095C195.305 113.059 195.109 109.804 195.619 106.411C197.261 95.4965 206.076 86.7936 217.053 85.2821C231.839 83.2463 244.864 94.1514 245.783 108.597C247.303 107.625 249.061 107.312 250.664 107.907C253.739 109.049 255.071 113.079 253.639 116.907C252.207 120.736 248.552 122.915 245.476 121.773C245.048 121.615 244.659 121.395 244.302 121.134C243.828 133.504 234.323 143.63 222.185 144.196C216.251 144.472 210.728 142.411 206.442 138.8C203.696 136.79 201.103 132.878 199.773 129.755Z" fill="#FFC0BB"/>
<path d="M214.92 110.297C214.872 111.738 214.86 113.145 214.787 114.523C214.701 115.799 214.562 117.63 213.765 118.601C213.646 118.768 213.021 119.443 213.005 120.464C212.973 121.419 213.479 122.27 214.108 122.794C215.399 123.874 217.07 123.977 218.454 123.637C217.043 123.389 215.689 122.905 214.902 121.986C214.538 121.53 214.296 121.019 214.38 120.541C214.443 119.992 214.749 119.705 214.86 119.539C215.254 119.021 215.725 118.482 215.927 116.721C215.997 115.965 215.986 115.23 215.917 114.503C215.774 113.055 215.464 111.64 214.92 110.297Z" fill="#F99893"/>
<path d="M223.295 112.203C223.352 113.415 224.385 114.35 225.6 114.294C226.816 114.237 227.755 113.208 227.698 111.998C227.642 110.786 226.609 109.851 225.393 109.908C224.178 109.964 223.238 110.991 223.295 112.203Z" fill="#333333"/>
<path d="M204.448 114.32C204.505 115.532 205.537 116.467 206.752 116.411C207.968 116.354 208.908 115.326 208.851 114.116C208.794 112.904 207.761 111.968 206.547 112.025C205.33 112.081 204.391 113.108 204.448 114.32Z" fill="#333333"/>
<path d="M226.994 127.068C224.75 129.016 221.833 130.537 218.934 130.887C215.799 131.281 213.03 130.329 210.363 128.691C212.848 130.77 215.726 131.824 219.005 131.458C222.199 131.047 225.185 129.212 226.994 127.068Z" fill="#F99893"/>
<path d="M220.529 107.244C223.635 106.288 225.393 106.233 226.814 106.406C229.91 106.821 231.653 108.184 232.736 108.657C231.432 106.265 229.429 104.99 227.01 104.689C224.388 104.376 221.822 105.556 220.529 107.244Z" fill="#07085B"/>
<path d="M210.821 108.333C209.229 106.931 206.486 106.262 203.967 107.079C201.658 107.84 199.937 109.475 199.123 112.079C200.096 111.405 201.534 109.732 204.493 108.725C205.849 108.285 207.582 107.995 210.821 108.333Z" fill="#07085B"/>
<path d="M210.365 150.234C210.365 150.234 188.126 153.047 182.478 157.618C176.83 162.189 149.65 229.356 149.65 229.356L172.242 255.731L220.248 256.082C220.248 256.082 256.253 275.424 278.845 257.138C301.436 238.852 289.788 175.202 276.728 161.488C263.667 147.773 240.369 148.126 240.369 148.126C240.369 148.126 219.19 162.894 210.365 150.234Z" fill="#9D3FFF"/>
<path d="M253.43 183.641C252.635 187.302 252.148 191.017 251.801 194.745C251.608 196.607 251.526 198.48 251.418 200.35C251.361 202.222 251.317 204.096 251.344 205.974C251.418 209.723 251.623 213.485 252.272 217.199C252.903 220.898 253.822 224.608 255.548 227.949C254.387 224.385 253.812 220.722 253.395 217.047C252.985 213.371 252.843 209.662 252.797 205.956C252.72 202.249 252.809 198.533 252.928 194.816C253.058 191.097 253.231 187.377 253.43 183.641Z" fill="white"/>
<path d="M186.892 181.18C185.876 186.628 184.8 192.054 183.708 197.473C182.591 202.887 181.434 208.29 180.12 213.65C178.82 219.012 177.374 224.34 175.627 229.563C174.751 232.174 173.773 234.749 172.627 237.249C171.497 239.755 170.158 242.181 168.361 244.301C170.405 242.4 171.907 239.991 173.264 237.566C174.58 235.106 175.715 232.55 176.693 229.944C177.692 227.343 178.549 224.695 179.361 222.037C180.145 219.369 180.861 216.685 181.53 213.989C182.168 211.288 182.78 208.58 183.328 205.861C183.858 203.138 184.379 200.415 184.817 197.676C185.724 192.206 186.431 186.703 186.892 181.18Z" fill="white"/>
<path d="M175.715 240.529C175.857 239.416 184.341 238.172 187.458 238.012C189.821 237.891 205.483 237.37 210.81 237.13L210.419 238.495L210.5 244.521L211.375 248.514C206.701 248.809 195.276 249.255 192.896 249.723C189.717 250.349 184.205 252.736 184.205 252.736C184.205 252.736 181.913 252.217 184.826 250.965C187.166 249.959 188.809 248.401 189.502 247.627C189.901 247.181 189.469 246.389 189.178 246.464C181.246 248.534 180.429 248.877 180.429 248.877C180.429 248.877 171.105 248.826 180.375 246.738C185.933 245.487 187.923 244.761 188.42 244.138C188.63 243.874 188.253 242.973 187.915 242.953C183.101 242.657 174.458 244.356 176.826 243.243C178.756 242.333 184.835 241.337 187.2 240.962C187.345 240.938 187.578 240.061 186.934 240.008C182.348 239.627 175.582 241.563 175.715 240.529Z" fill="#FFC0BB"/>
<path d="M253.018 228.45C251.071 228.913 249.096 229.25 247.141 229.661C243.205 230.375 239.259 230.999 235.299 231.552C231.335 232.069 227.365 232.547 223.386 232.93C219.423 233.321 215.391 233.658 211.467 233.877L210.939 233.907L210.824 234.363C210.486 235.688 210.267 236.981 210.099 238.307C209.932 239.627 209.864 240.958 209.865 242.29C209.876 243.624 209.992 244.957 210.211 246.277C210.455 247.595 210.846 248.886 211.372 250.123L211.418 250.229L211.503 250.286L215.862 253.198C217.314 254.171 218.773 255.137 220.245 256.082C218.878 254.99 217.498 253.918 216.113 252.854L212.057 249.734C211.638 248.566 211.339 247.359 211.174 246.124C211.019 244.858 210.948 243.581 210.987 242.299C211.028 241.019 211.155 239.74 211.336 238.47C211.498 237.368 211.713 236.256 211.987 235.192C213.869 235.131 215.671 235.009 217.52 234.875C219.525 234.726 221.528 234.568 223.527 234.358C227.525 233.948 231.516 233.449 235.486 232.818C239.455 232.181 243.405 231.409 247.317 230.488C249.264 229.992 251.216 229.514 253.135 228.91C255.068 228.369 256.965 227.693 258.853 227.024C256.903 227.498 254.978 228.043 253.018 228.45Z" fill="white"/>
<path d="M82.6308 195.773H158.287C160.609 195.773 162.699 197.171 163.579 199.311L186.746 255.642H228.575C229.745 255.642 230.692 256.586 230.692 257.752C230.692 258.917 229.745 259.861 228.575 259.861H107.812C105.582 259.861 103.56 258.556 102.647 256.528L78.2946 202.444C76.8843 199.312 79.1852 195.773 82.6308 195.773Z" fill="#07085B"/>
<path d="M192.39 86.3808C192.39 86.3808 184.977 86.6189 192.756 80.3731C200.536 74.1273 221.424 66.8045 234.813 73.8477C234.813 73.8477 237.49 68.1762 241.36 69.5312C245.23 70.8845 238.844 74.7865 238.844 74.7865C238.844 74.7865 243.786 74.6284 245.294 77.0438C246.408 78.83 243.382 78.9082 241.728 78.8266C244.542 79.3027 255.328 86.0895 249.914 107.756C247.989 107.335 237.024 91.4963 237.024 91.4963C237.024 91.4963 211.95 105.374 214.429 94.3395C214.429 94.3395 188.45 110.49 192.137 97.1494C192.138 97.1478 182.094 97.8819 192.39 86.3808Z" fill="#07085B"/>
<path d="M249.939 107.888C249.939 107.888 247.863 107.161 245.63 108.927C243.398 110.692 243.645 116.895 243.645 116.895C243.645 116.895 232.985 123.742 234.108 94.7674C235.305 63.9413 243 97.2394 243 97.2394L249.939 107.888Z" fill="#07085B"/>
<path opacity="0.3" d="M107.688 80.22H30.0492C27.3673 80.22 25.1934 82.3857 25.1934 85.0575V116.975C25.1934 119.647 27.3673 121.813 30.0492 121.813H91.1736C93.6465 125.252 98.1331 131.41 98.5288 131.41C98.8996 131.41 98.1869 125.593 97.6837 121.813H107.688C110.37 121.813 112.543 119.647 112.543 116.975V85.0575C112.543 82.3874 110.37 80.22 107.688 80.22Z" fill="#DAEEF7"/>
<path d="M104.481 71.9416H26.8422C24.1602 71.9416 21.9863 74.1073 21.9863 76.7791V108.697C21.9863 111.369 24.1602 113.535 26.8422 113.535H87.9664C90.4395 116.974 94.9262 123.132 95.3219 123.132C95.6927 123.132 94.9792 117.315 94.4767 113.535H104.481C107.162 113.535 109.336 111.369 109.336 108.697V76.7791C109.336 74.1073 107.162 71.9416 104.481 71.9416Z" fill="#FF7996"/>
<path d="M43.3513 103.929C49.5532 101.343 52.4766 94.2375 49.8809 88.059C47.2852 81.8805 40.1532 78.9682 33.9513 81.5541C27.7493 84.1401 24.8259 91.245 27.4217 97.4235C30.0174 103.602 37.1493 106.514 43.3513 103.929Z" fill="white"/>
<path d="M32.3136 93.056C32.3136 93.056 31.1072 88.122 33.9829 86.2743C36.8586 84.4265 39.9283 84.0036 42.027 85.0674C44.9362 86.5439 46.1309 90.5307 45.2002 92.7381L37.4803 90.8071L32.3136 93.056Z" fill="#040744"/>
<path d="M40.5762 98.849H37.002V102.405H40.5762V98.849Z" fill="#FFC0BB"/>
<path d="M40.5762 100.98V98.849H37.002V100.662C37.7723 101.073 38.9119 101.31 40.5762 100.98Z" fill="#F99893"/>
<path d="M46.2119 92.4851C45.8393 92.3019 45.4065 92.3352 45.0139 92.5317C45.1492 89.0242 42.2718 86.0728 38.6491 86.1977C35.0264 86.0728 32.1507 89.0242 32.2844 92.5317C31.8934 92.3336 31.4589 92.3019 31.0862 92.4851C30.3711 92.8363 30.1489 93.8417 30.59 94.7323C31.0311 95.6212 31.9686 96.0591 32.6837 95.7078C32.7824 95.6595 32.8726 95.5963 32.9511 95.5247C33.3605 98.4246 35.7934 100.599 38.6475 100.559C41.5014 100.599 43.9344 98.4246 44.3438 95.5247C44.424 95.5963 44.5126 95.6595 44.6111 95.7078C45.3263 96.0591 46.2637 95.6229 46.7048 94.7323C47.1493 93.8417 46.9271 92.8363 46.2119 92.4851Z" fill="#FFC0BB"/>
<path d="M40.9889 96.6284C40.8318 97.3309 40.0231 97.8835 39.0339 97.9152C38.043 97.9451 37.2024 97.4424 37.002 96.7499L40.9889 96.6284Z" fill="white"/>
<path d="M32.287 92.5317C32.287 92.5317 36.9657 91.1201 39.0126 88.7629C39.0126 88.7629 38.4327 91.6029 38.0017 92.0556C38.1387 92.1455 42.6737 89.9499 43.2903 87.9223C43.9069 85.8948 38.6534 85.1673 38.6534 85.1673C38.6534 85.1673 36.8537 85.9298 36.7618 85.9763C36.6715 86.0213 34.9823 86.2177 34.7884 86.6472C34.5361 87.2048 33.3447 87.2548 33.3447 87.2548L32.5928 88.8145L32.0664 90.4559L32.287 92.5317Z" fill="#040744"/>
<path d="M28.4531 86.1129C29.4858 86.5273 30.6805 86.7188 31.917 86.3393C34.6474 85.5036 35.7285 85.8282 36.0911 86.0329C36.31 86.1561 36.569 86.2044 36.808 86.1262C37.077 86.0363 37.3277 85.7932 37.2491 85.1806C37.2491 85.1806 37.3578 82.5971 35.1337 81.1239C32.3598 81.9579 30.0038 83.749 28.4531 86.1129Z" fill="#040744"/>
<path d="M34.329 85.943C34.2471 85.8364 34.2738 85.6832 34.3842 85.61C34.8403 85.312 36.0133 84.6395 37.4219 84.5679C37.554 84.5613 37.6643 84.6678 37.6643 84.7993C37.6643 84.9225 37.5673 85.0224 37.4437 85.029C36.157 85.0956 35.0525 85.7282 34.6364 85.9979C34.5362 86.0628 34.4009 86.0395 34.329 85.943Z" fill="#FEB546"/>
<path d="M69.0264 84.3983H53.6768C53.4129 84.3983 53.1973 84.1852 53.1973 83.9205V82.7686C53.1973 82.5056 53.4112 82.2908 53.6768 82.2908H69.0264C69.2904 82.2908 69.506 82.5039 69.506 82.7686V83.9205C69.506 84.1835 69.2904 84.3983 69.0264 84.3983Z" fill="white"/>
<path d="M63.7344 89.9581H53.6768C53.4129 89.9581 53.1973 89.7451 53.1973 89.4804V88.3285C53.1973 88.0655 53.4112 87.8508 53.6768 87.8508H63.7344C63.9984 87.8508 64.214 88.0638 64.214 88.3285V89.4804C64.2123 89.7451 63.9984 89.9581 63.7344 89.9581Z" fill="white"/>
<path d="M79.1884 89.9581H66.5909C66.3269 89.9581 66.1113 89.7451 66.1113 89.4804V88.3285C66.1113 88.0655 66.3252 87.8508 66.5909 87.8508H79.1884C79.4524 87.8508 79.668 88.0638 79.668 88.3285V89.4804C79.668 89.7451 79.4524 89.9581 79.1884 89.9581Z" fill="white"/>
<path d="M99.3604 84.3983H72.6866C72.4226 84.3983 72.207 84.1852 72.207 83.9205V82.7686C72.207 82.5056 72.4209 82.2908 72.6866 82.2908H99.362C99.626 82.2908 99.842 82.5039 99.842 82.7686V83.9205C99.8403 84.1835 99.626 84.3983 99.3604 84.3983Z" fill="white"/>
<path d="M99.3612 100.858H53.6768C53.4129 100.858 53.1973 100.645 53.1973 100.381V99.2286C53.1973 98.9656 53.4112 98.7509 53.6768 98.7509H99.3612C99.6252 98.7509 99.8411 98.964 99.8411 99.2286V100.381C99.8411 100.644 99.6268 100.858 99.3612 100.858Z" fill="white"/>
<path d="M76.8148 95.5181H53.6768C53.4129 95.5181 53.1973 95.3051 53.1973 95.0404V93.8884C53.1973 93.6254 53.4112 93.4106 53.6768 93.4106H76.8148C77.0788 93.4106 77.2944 93.6237 77.2944 93.8884V95.0404C77.2944 95.3051 77.0788 95.5181 76.8148 95.5181Z" fill="white"/>
<path d="M99.3591 95.5181H81.296C81.0319 95.5181 80.8164 95.3051 80.8164 95.0404V93.8884C80.8164 93.6254 81.0303 93.4106 81.296 93.4106H99.3591C99.6232 93.4106 99.8391 93.6237 99.8391 93.8884V95.0404C99.8391 95.3051 99.6248 95.5181 99.3591 95.5181Z" fill="white"/>
<path d="M126.213 234.334C128.797 233.792 130.287 230.498 129.542 226.977C128.797 223.456 126.098 221.041 123.514 221.584C120.931 222.126 119.441 225.42 120.186 228.942C120.931 232.463 123.63 234.877 126.213 234.334Z" fill="white"/>
<path d="M99.5389 37.1538L101.158 49.3024L92.4959 43L65.9824 29.5064L86.4903 31.3774C86.4903 31.3774 96.9368 33.906 97.5035 34.4154C98.0685 34.9248 99.5389 37.1538 99.5389 37.1538Z" fill="#C12F56"/>
<path d="M108.621 29.8159L65.9824 29.5064L99.5389 37.1538L108.621 29.8159Z" fill="#FF5B7E"/>
<path d="M85.8319 49.3756L97.0059 40.4348L65.9824 29.5064L85.8319 49.3756Z" fill="#FF5B7E"/>
<path d="M152.276 102.818L151.713 101.989C152.575 101.408 153.364 100.697 154.059 99.8728L154.827 100.517C154.072 101.411 153.215 102.185 152.276 102.818Z" fill="#FEB546"/>
<path d="M157.918 94.6641L156.96 94.3645C157.541 92.5183 157.926 90.4242 158.103 88.137L159.104 88.2135C158.922 90.5757 158.522 92.7464 157.918 94.6641ZM159.07 81.6765L158.071 81.778C158.043 81.5034 158.011 81.2287 157.974 80.9557C157.85 80.0252 157.672 79.0847 157.442 78.1608C157.232 77.3084 156.973 76.4512 156.676 75.6122L157.623 75.2776C157.932 76.1482 158.2 77.0388 158.418 77.9211C158.656 78.8799 158.841 79.857 158.971 80.8242C159.007 81.0988 159.041 81.3868 159.07 81.6765ZM153.919 69.8958C152.846 68.1495 151.564 66.43 150.112 64.7869L150.866 64.1261C152.356 65.8124 153.672 67.5786 154.776 69.3731L153.919 69.8958ZM122.546 67.5286C121.863 67.6968 120.12 67.7351 119.002 67.0709C118.167 66.5748 117.47 65.7941 116.99 64.817L117.892 64.3774C118.294 65.1931 118.84 65.8107 119.517 66.2119C120.322 66.6913 121.761 66.6913 122.306 66.5582C122.379 66.5399 122.406 66.5265 122.406 66.5265C122.447 66.4999 122.499 66.4666 122.549 66.4333L123.108 67.2656C123.051 67.3039 122.992 67.3406 122.934 67.3772C122.835 67.4404 122.708 67.4887 122.546 67.5286ZM145.537 60.3223C143.94 58.9674 142.209 57.6806 140.396 56.4986L140.945 55.6613C142.795 56.8666 144.558 58.1783 146.189 59.5599L145.537 60.3223ZM126.725 61.6441L125.743 61.4394C125.873 60.8234 125.939 60.1942 125.94 59.5717C125.942 58.6927 125.83 57.7871 125.604 56.8765C125.482 56.3822 125.323 55.8777 125.136 55.3783L126.075 55.0271C126.277 55.5631 126.446 56.1058 126.578 56.6369C126.824 57.6256 126.946 58.6144 126.944 59.5749C126.943 60.2641 126.869 60.9616 126.725 61.6441ZM117.897 58.5662L116.992 58.135C117.901 56.239 119.612 54.5793 121.682 53.5789L121.821 53.5139L122.249 54.4195L122.122 54.4795C120.25 55.3817 118.711 56.8715 117.897 58.5662ZM134.557 54.0799C132.736 53.5256 131.291 53.1893 130.591 53.156C129.788 53.1177 129.053 53.1095 128.347 53.1311L128.316 52.1306C129.05 52.109 129.81 52.1173 130.639 52.1556C131.706 52.2056 133.735 52.7831 134.851 53.1227L134.557 54.0799ZM121.881 50.0315C120.513 48.4335 118.91 47.0451 117.12 45.9048L117.662 45.0625C119.535 46.2561 121.213 47.7093 122.645 49.3823L121.881 50.0315Z" fill="#FEB546"/>
<path d="M111.359 43.3429C110.303 43.0533 109.237 42.8535 108.189 42.7469L108.291 41.7515C109.394 41.863 110.517 42.0744 111.626 42.3774L111.359 43.3429Z" fill="#FEB546"/>
<path d="M65.2899 184.787C65.2899 184.787 64.9206 188.417 62.0449 188.668C64.9206 188.92 65.2899 192.551 65.2899 192.551C65.2899 192.551 65.6592 188.92 68.5349 188.668C65.6592 188.417 65.2899 184.787 65.2899 184.787Z" fill="#FF5B7E"/>
<path d="M173.536 133.042C173.536 133.042 172.947 138.822 168.369 139.222C172.947 139.621 173.536 145.401 173.536 145.401C173.536 145.401 174.124 139.621 178.702 139.222C174.124 138.822 173.536 133.042 173.536 133.042Z" fill="#02CCC0"/>
<path d="M15.2487 63.2255C15.2487 63.2255 14.6605 69.0052 10.082 69.4048C14.6605 69.8042 15.2487 75.5839 15.2487 75.5839C15.2487 75.5839 15.8369 69.8042 20.4153 69.4048C15.8369 69.0052 15.2487 63.2255 15.2487 63.2255Z" fill="#02CCC0"/>
<path d="M125.948 111.574C125.948 111.574 125.498 116.694 122.008 117.048C125.5 117.403 125.948 122.524 125.948 122.524C125.948 122.524 126.397 117.403 129.888 117.048C126.397 116.696 125.948 111.574 125.948 111.574Z" fill="#FEB546"/>
<path d="M35.3542 36.7061C35.3542 36.7061 34.9048 41.8266 31.4141 42.1811C34.9064 42.5357 35.3542 47.6561 35.3542 47.6561C35.3542 47.6561 35.8038 42.5357 39.2944 42.1811C35.8038 41.8266 35.3542 36.7061 35.3542 36.7061Z" fill="#FEB546"/>
<path d="M287.457 80.6877C305.816 80.6877 320.698 67.3262 320.698 50.8438C320.698 34.3615 305.816 21 287.457 21C269.099 21 254.217 34.3615 254.217 50.8438C254.217 67.3262 269.099 80.6877 287.457 80.6877Z" fill="#E6F7FF"/>
<path d="M267.01 85.1523C267.01 87.3064 265.065 89.0526 262.667 89.0526C260.267 89.0526 258.322 87.3064 258.322 85.1523C258.322 82.9982 260.267 81.252 262.667 81.252C265.065 81.252 267.01 82.9982 267.01 85.1523Z" fill="#E6F7FF"/>
<path d="M302.504 45.9048C301.801 42.0229 299.116 38.8684 295.03 38.5737C289.904 38.2042 287.889 42.8153 287.521 43.2414C287.286 42.9634 286.222 40.2267 283.337 38.9566C278.615 36.8792 272.892 40.1002 272.247 46.9636C271.912 50.521 272.961 53.2227 274.989 56.0575C277.902 60.1276 282.976 64.519 287.013 67.4887C287.164 67.5986 287.266 67.5986 287.411 67.4887C289.58 65.8573 296.942 60.8118 300.715 54.9456C302.503 52.1656 303.093 49.1476 302.504 45.9048Z" fill="#FF5B7E"/>
</g>
<defs>
<linearGradient id="paint0_linear_1973_1165" x1="428" y1="322.5" x2="80.5" y2="89.5" gradientUnits="userSpaceOnUse">
<stop stop-color="#FFC0BB"/>
<stop offset="1" stop-color="#FFC0BB" stop-opacity="0"/>
</linearGradient>
</defs>
</svg>
