<svg width="73" height="72" viewBox="0 0 73 72" fill="none" xmlns="http://www.w3.org/2000/svg">
<path d="M43.776 0H29.184C21.4439 0 14.0208 3.07058 8.54776 8.53626C3.07469 14.0019 -3.91006e-05 21.415 -3.91006e-05 29.1446C-3.91006e-05 36.8742 3.07469 44.2873 8.54776 49.753C14.0208 55.2186 21.4439 58.2892 29.184 58.2892V71.04C47.424 63.7538 72.96 52.8246 72.96 29.1446C72.96 21.415 69.8852 14.0019 64.4122 8.53626C58.9391 3.07058 51.516 0 43.776 0V0Z" fill="white"/>
<circle cx="23.0404" cy="28.8002" r="5.12" fill="#373D41"/>
<circle cx="36.4804" cy="28.8002" r="5.12" fill="#373D41"/>
<circle cx="49.9203" cy="28.8002" r="5.12" fill="#373D41"/>
</svg>
