<svg width="57" height="57" viewBox="0 0 57 57" fill="none" xmlns="http://www.w3.org/2000/svg">
<path d="M56.5374 28.2687C56.5374 12.6563 43.8811 0 28.2687 0C12.6563 0 0 12.6563 0 28.2687C0 43.8811 12.6563 56.5374 28.2687 56.5374C43.8811 56.5374 56.5374 43.8811 56.5374 28.2687Z" fill="url(#paint0_linear_67:905)"/>
<path d="M29.0164 27.4885V30.7812C29.0164 31.1708 28.7005 31.4867 28.3108 31.4867C27.9211 31.4867 27.6052 31.1708 27.6052 30.7812V27.4885C27.6052 27.0988 27.9211 26.7829 28.3108 26.7829C28.7005 26.7829 29.0164 27.0988 29.0164 27.4885Z" fill="white"/>
<path d="M32.3091 27.4885V30.7812C32.3091 31.1708 31.9932 31.4867 31.6035 31.4867C31.2138 31.4867 30.8979 31.1708 30.8979 30.7812V27.4885C30.8979 27.0988 31.2138 26.7829 31.6035 26.7829C31.9932 26.7829 32.3091 27.0988 32.3091 27.4885Z" fill="white"/>
<path d="M25.7237 27.4885V30.7812C25.7237 31.1708 25.4077 31.4867 25.0181 31.4867C24.6284 31.4867 24.3125 31.1708 24.3125 30.7812V27.4885C24.3125 27.0988 24.6284 26.7829 25.0181 26.7829C25.4077 26.7829 25.7237 27.0988 25.7237 27.4885Z" fill="white"/>
<path fill-rule="evenodd" clip-rule="evenodd" d="M16.7635 38.1749H20.7122V43.5787L30.1878 38.1749H39.7864C41.5272 38.231 42.9871 36.9395 43.2118 35.1987C43.5487 29.5834 43.5487 23.968 43.0995 18.3527C42.9871 16.7804 41.6956 15.6012 40.1795 15.4889C36.361 15.3204 32.318 15.152 28.2749 15.152C24.2319 15.152 20.1889 15.2643 16.3704 15.5451C14.7982 15.6574 13.5628 16.8366 13.4505 18.4089C13.0574 24.0242 13.0013 29.6396 13.3381 35.2549C13.5066 36.9957 15.0228 38.231 16.7635 38.1749ZM36.7779 26.0773V25.6069C36.7779 25.2172 36.4621 24.9013 36.0724 24.9013H34.0926L30.9535 20.5849C30.6478 20.1648 30.0594 20.0718 29.6393 20.3775C29.2191 20.683 29.1262 21.2714 29.4318 21.6916L31.7661 24.9013H24.856L27.1904 21.6916C27.496 21.2714 27.4031 20.683 26.9829 20.3775C26.5627 20.0719 25.9744 20.1648 25.6687 20.585L22.5295 24.9013H20.5497C20.1601 24.9013 19.8442 25.2172 19.8442 25.6069V26.0773C19.8442 26.467 20.1601 26.7829 20.5497 26.7829H20.785L21.5526 32.1566C21.652 32.8518 22.2474 33.3682 22.9496 33.3682H33.6726C34.3748 33.3682 34.9702 32.8518 35.0695 32.1566L35.8372 26.7829H36.0724C36.4621 26.7829 36.7779 26.467 36.7779 26.0773Z" fill="white"/>
<defs>
<linearGradient id="paint0_linear_67:905" x1="56.5374" y1="-3.36989e-06" x2="28.2687" y2="56.5374" gradientUnits="userSpaceOnUse">
<stop stop-color="#BE80FE"/>
<stop offset="1" stop-color="#5501FE"/>
</linearGradient>
</defs>
</svg>
