  <svg
    width="184"
    height="168"
    viewBox="0 0 184 168"
    fill="none"
    xmlns="http://www.w3.org/2000/svg"
  >
    <g filter="url(#filter0_f_1932_734)">
      <ellipse
        cx="95.7887"
        cy="157.335"
        rx="52.7368"
        ry="4.39474"
        fill="url(#paint0_radial_1932_734)"
      />
    </g>
    <g filter="url(#filter1_dii_1932_734)">
      <rect
        x="19.9796"
        y="20"
        width="150.52"
        height="123.053"
        rx="10.608"
        fill="url(#paint1_linear_1932_734)"
      />
      <rect
        x="20.4796"
        y="20.5"
        width="149.52"
        height="122.053"
        rx="10.108"
        stroke="url(#paint2_linear_1932_734)"
      />
    </g>
    <rect
      x="102.381"
      y="54.0592"
      width="51.6382"
      height="56.0329"
      rx="4.39474"
      fill="#DDE4F8"
    />
    <rect
      x="106.776"
      y="62.8487"
      width="24.1711"
      height="3.29605"
      rx="1.64803"
      fill="white"
    />
    <rect
      x="106.776"
      y="68.3421"
      width="16.4803"
      height="3.29605"
      rx="1.64803"
      fill="white"
    />
    <rect
      x="130.947"
      y="77.1316"
      width="17.5789"
      height="3.29605"
      rx="1.64803"
      fill="white"
    />
    <rect
      x="106.776"
      y="92.5132"
      width="15.3816"
      height="3.29605"
      rx="1.64803"
      fill="white"
    />
    <rect
      x="106.776"
      y="87.0197"
      width="10.9868"
      height="3.29605"
      rx="1.64803"
      fill="white"
    />
    <rect
      x="106.776"
      y="98.0066"
      width="20.875"
      height="3.29605"
      rx="1.64803"
      fill="white"
    />
    <circle cx="147.427" cy="121.079" r="6.59211" fill="#D6E0FD" />
    <path
      d="M144.131 118.645C144.131 118.416 144.218 118.197 144.372 118.035C144.527 117.874 144.736 117.783 144.955 117.783H149.899C150.117 117.783 150.327 117.874 150.481 118.035C150.636 118.197 150.723 118.416 150.723 118.645V122.093C150.723 122.322 150.636 122.541 150.481 122.703C150.327 122.865 150.117 122.956 149.899 122.956H145.949C145.84 122.956 145.735 123.001 145.658 123.082L144.483 124.312C144.454 124.342 144.417 124.362 144.377 124.371C144.337 124.379 144.296 124.375 144.258 124.359C144.22 124.342 144.188 124.315 144.166 124.279C144.143 124.244 144.131 124.202 144.131 124.16V118.645ZM146.191 120.369C146.191 120.255 146.147 120.145 146.07 120.064C145.993 119.984 145.888 119.938 145.779 119.938C145.669 119.938 145.565 119.984 145.487 120.064C145.41 120.145 145.367 120.255 145.367 120.369C145.367 120.484 145.41 120.593 145.487 120.674C145.565 120.755 145.669 120.8 145.779 120.8C145.888 120.8 145.993 120.755 146.07 120.674C146.147 120.593 146.191 120.484 146.191 120.369ZM147.839 120.369C147.839 120.255 147.795 120.145 147.718 120.064C147.641 119.984 147.536 119.938 147.427 119.938C147.318 119.938 147.213 119.984 147.135 120.064C147.058 120.145 147.015 120.255 147.015 120.369C147.015 120.484 147.058 120.593 147.135 120.674C147.213 120.755 147.318 120.8 147.427 120.8C147.536 120.8 147.641 120.755 147.718 120.674C147.795 120.593 147.839 120.484 147.839 120.369ZM149.075 120.8C149.184 120.8 149.289 120.755 149.366 120.674C149.443 120.593 149.487 120.484 149.487 120.369C149.487 120.255 149.443 120.145 149.366 120.064C149.289 119.984 149.184 119.938 149.075 119.938C148.966 119.938 148.861 119.984 148.783 120.064C148.706 120.145 148.663 120.255 148.663 120.369C148.663 120.484 148.706 120.593 148.783 120.674C148.861 120.755 148.966 120.8 149.075 120.8Z"
      fill="white"
    />
    <circle cx="32.065" cy="33.1842" r="2.19737" fill="#FF7171" />
    <circle cx="39.7558" cy="33.1842" r="2.19737" fill="#47DC83" />
    <circle cx="47.4466" cy="33.1842" r="2.19737" fill="#F9D24A" />
    <line
      x1="29.8676"
      y1="41.8089"
      x2="154.019"
      y2="41.8089"
      stroke="url(#paint3_radial_1932_734)"
      stroke-width="0.329605"
    />
    <path
      d="M30.037 104.334C32.6365 106.362 34.0193 109.41 36.2405 111.762C36.8875 112.447 37.2897 113.349 38.4203 113.299C39.0226 113.25 39.5846 112.977 39.9948 112.534C40.405 112.09 40.6335 111.508 40.6348 110.904C40.5892 110.097 40.4275 109.3 40.1545 108.539C40.0889 108.367 39.8911 108.178 40.0835 107.962C40.1317 108.101 40.2315 108.217 40.3624 108.286C40.4933 108.354 40.6454 108.37 40.7876 108.33C41.6717 107.717 41.6083 106.83 41.4961 105.928C41.0228 104.566 41.1004 103.074 41.7124 101.769C41.9615 100.956 42.4843 100.254 43.1921 99.7827C43.8999 99.3113 44.7491 99.0995 45.5953 99.1832C46.1653 99.2774 46.7503 99.2047 47.2799 98.974C48.127 98.2483 49.0813 97.6581 50.109 97.2244C50.4839 97.0015 50.794 96.6845 51.0086 96.3047C51.8953 95.0943 51.5964 93.2927 53.0038 92.3372C53.2632 92.0914 53.4505 91.7794 53.5457 91.4349C53.6408 91.0904 53.6401 90.7265 53.5436 90.3824C53.2044 89.2846 53.3773 88.074 52.9356 87.0192C52.2855 85.4673 53.4711 87.0277 53.4957 86.6649C54.4121 86.0867 54.3619 85.2023 54.2663 84.3022C54.105 82.9044 53.1691 81.4893 54.3659 80.1161C54.6936 79.7212 54.9149 79.2491 55.0086 78.7446C55.1022 78.2401 55.0652 77.7199 54.901 77.2338C54.8308 76.0724 53.707 74.8819 55.0183 73.7613C55.3356 73.3638 55.5494 72.8938 55.6406 72.3935C55.7319 71.8931 55.6977 71.378 55.5411 70.8941C55.4727 69.7309 54.4044 68.5611 55.5841 67.4096C55.8385 67.1575 56.0199 66.8414 56.1093 66.4946C56.1986 66.1478 56.1925 65.7833 56.0916 65.4397C55.7254 63.8586 55.6733 62.2209 55.9383 60.6198C55.9853 59.4987 55.2501 58.9861 54.3612 58.5935C51.2992 56.8333 48.167 58.2481 45.1601 58.6253C33.123 60.1352 21.1222 61.9345 9.10728 63.622C7.45425 63.8321 5.92463 64.607 4.77739 65.8155C3.63015 67.024 2.93581 68.5919 2.81193 70.2536C1.77857 79.8052 0.96064 89.3806 0.11298 98.9515C-0.0290375 99.6047 -0.0371971 100.28 0.0889893 100.936C0.215179 101.593 0.473099 102.217 0.847176 102.771C1.22125 103.325 1.70372 103.798 2.26547 104.16C2.82722 104.522 3.45659 104.767 4.11557 104.88C9.39757 104.806 14.6598 104.218 19.8277 103.123C23.2752 102.492 26.8329 102.914 30.037 104.334Z"
      fill="#8BA6F5"
    />
    <path
      d="M53.6148 83.9161C53.6795 84.8562 53.8754 85.8209 53.1094 86.6048C52.606 87.7774 52.5609 89.0961 52.9828 90.3004C53.0862 90.6552 53.097 91.0305 53.014 91.3906C52.931 91.7507 52.757 92.0835 52.5087 92.3572C51.8629 93.6932 51.2277 95.0343 50.5497 96.3546C50.532 96.4578 50.484 96.5533 50.4119 96.6291C50.3397 96.7048 50.2466 96.7573 50.1444 96.7799C49.0897 97.138 48.1369 97.7453 47.367 98.5504L45.3706 98.6084C44.5133 98.7155 43.695 99.0299 42.9865 99.5244C42.278 100.019 41.7007 100.679 41.3045 101.446C41.1751 102.838 40.0909 104.131 40.8753 105.616C40.914 106.547 41.125 107.513 40.3481 108.283C40.1189 108.64 39.9859 109.05 39.9619 109.473C39.938 109.897 40.0239 110.319 40.2115 110.7C40.1177 111.913 39.075 112.472 38.4203 113.299C39.7983 113.852 41.1662 114.432 42.5563 114.953C45.542 116.072 46.8492 115.265 47.2439 112.033C47.411 110.664 47.3855 109.27 47.5899 107.908C48.3127 103.091 49.1733 102.249 54.0113 101.069C55.4844 100.734 56.8081 99.9273 57.7817 98.7719C58.7553 97.6166 59.3256 96.1753 59.4063 94.6666C60.5716 84.8704 61.5933 75.0576 62.4713 65.2282C62.8056 61.4561 60.1437 59.478 54.3611 58.593L55.4892 60.4864C55.1813 62.114 55.1872 63.7854 55.5068 65.4108C55.6112 65.7637 55.6216 66.1378 55.537 66.496C55.4523 66.8541 55.2756 67.184 55.0243 67.4529C54.7744 67.9276 54.6349 68.4525 54.6161 68.9886C54.5974 69.5247 54.6999 70.0581 54.916 70.5491C54.9268 71.6719 55.2655 72.8482 54.3819 73.8253C54.1359 74.3012 53.9987 74.8258 53.98 75.3613C53.9614 75.8967 54.0618 76.4296 54.274 76.9215C54.2952 78.0482 54.6187 79.2227 53.7529 80.2087C53.2459 81.384 53.1966 82.7064 53.6148 83.9161Z"
      fill="#4563F0"
    />
    <path
      d="M30.0366 104.334C29.3813 103.437 28.4958 102.734 27.4737 102.299C26.4517 101.864 25.331 101.713 24.2303 101.862C17.4583 102.356 10.7337 103.365 4.11489 104.88C10.255 108.66 16.6085 105.952 22.8747 105.447C25.2763 105.253 27.6501 104.715 30.0366 104.334Z"
      fill="#4664F0"
    />
    <path
      d="M44.0929 72.5118C42.7937 71.6474 41.5047 71.1256 40.112 72.3803C39.3247 72.9995 38.7131 73.8137 38.3377 74.7423C37.9623 75.6708 37.8362 76.6814 37.9719 77.6737C37.9885 78.0453 38.0819 78.4094 38.2461 78.7431C38.4103 79.0768 38.6418 79.3729 38.9261 79.6127C39.2104 79.8525 39.5413 80.0308 39.8978 80.1365C40.2544 80.2421 40.6291 80.2728 40.9981 80.2265C43.5731 80.8241 44.1447 78.7393 44.8921 77.1404C45.6499 75.5194 46.1335 73.743 44.0929 72.5118Z"
      fill="#F5FBF9"
    />
    <path
      d="M28.0779 74.43C27.3215 74.1861 26.5154 74.1394 25.7359 74.2942C24.9564 74.4491 24.2293 74.8005 23.6236 75.315C23.0179 75.8296 22.5537 76.4903 22.2748 77.2345C21.9959 77.9787 21.9117 78.7818 22.0302 79.5677C22.4229 81.8624 23.7144 83.1639 26.2631 82.0619C29.7284 80.7401 30.5027 77.4842 28.0779 74.43Z"
      fill="#F5FBF9"
    />
    <path
      d="M12.249 76.9731C11.6392 76.4622 10.8577 76.2028 10.0634 76.2478C9.26917 76.2928 8.52188 76.6386 7.97365 77.2151C7.23701 77.9608 6.71132 78.8885 6.4502 79.9036C6.18909 80.9187 6.20189 81.9849 6.48729 82.9934C6.92975 84.7938 8.34656 84.6851 9.72277 84.6666C13.614 83.4952 14.7897 79.9148 12.249 76.9731Z"
      fill="#F7FCF9"
    />
    <path
      d="M44.0923 72.512C45.2659 76.2524 44.3896 78.4366 40.9975 80.2267C41.2384 80.5444 41.5442 80.8073 41.8944 80.9979C42.2447 81.1884 42.6315 81.3024 43.0291 81.3321C43.4267 81.3619 43.8261 81.3068 44.2009 81.1705C44.5756 81.0342 44.917 80.8198 45.2026 80.5415C46.0605 79.906 46.7136 79.0332 47.0815 78.031C47.4494 77.0287 47.5159 75.9408 47.273 74.9011C47.2363 74.5289 47.1227 74.1684 46.9393 73.8424C46.756 73.5164 46.5069 73.232 46.2078 73.0074C45.9088 72.7827 45.5663 72.6227 45.2021 72.5374C44.8379 72.4521 44.46 72.4435 44.0923 72.512Z"
      fill="#4966F0"
    />
    <path
      d="M12.2481 76.973C13.4413 80.6733 12.8913 82.3484 9.72182 84.6666C9.78235 84.9023 9.89316 85.1222 10.0467 85.3111C10.2001 85.5 10.3927 85.6534 10.6111 85.7609C10.8294 85.8684 11.0685 85.9273 11.3118 85.9337C11.5551 85.9401 11.7969 85.8938 12.0206 85.7979C13.0433 85.49 13.9367 84.8549 14.5636 83.9902C15.1905 83.1255 15.5163 82.0789 15.4909 81.0112C15.5206 78.7005 15.002 76.9789 12.2481 76.973Z"
      fill="#4967F0"
    />
    <path
      d="M28.0767 74.4299C28.769 75.7018 28.9666 77.1847 28.6316 78.5935C28.2965 80.0023 27.4526 81.2376 26.2619 82.0618C25.621 83.4141 26.5326 83.4569 27.4315 83.376C28.4342 83.303 29.3775 82.8732 30.0907 82.1647C30.8039 81.4561 31.2397 80.5156 31.3193 79.5134C31.5125 78.9654 31.5785 78.3806 31.5122 77.8034C31.4458 77.2261 31.249 76.6715 30.9365 76.1816C30.6241 75.6917 30.2042 75.2794 29.7087 74.9759C29.2132 74.6724 28.6551 74.4857 28.0767 74.4299Z"
      fill="#4866F0"
    />
    <path
      d="M41.7856 101.289C42.7447 100.117 43.9751 99.1972 45.3702 98.6086C42.9716 97.903 42.1021 99.7988 40.9467 101.208C40.9825 101.285 41.0379 101.352 41.1074 101.401C41.177 101.45 41.2582 101.481 41.343 101.489C41.4278 101.497 41.5133 101.483 41.5909 101.448C41.6686 101.413 41.7357 101.358 41.7856 101.289Z"
      fill="#A8BAF9"
    />
    <path
      d="M50.5491 96.3547C51.1293 95.8558 51.6021 95.2442 51.9388 94.557C52.2754 93.8698 52.469 93.1213 52.5076 92.357C51.9091 92.84 51.4236 93.4481 51.0852 94.1388C50.7469 94.8294 50.5639 95.5858 50.5491 96.3547Z"
      fill="#A8BBF9"
    />
    <path
      d="M41.7847 101.289L40.9457 101.208C40.8206 102.676 39.4942 104.124 40.874 105.616C41.1774 104.173 41.4809 102.731 41.7847 101.289Z"
      fill="#A8BAF9"
    />
    <path
      d="M55.5057 65.411C55.5002 63.7691 55.4946 62.1274 55.4887 60.486C55.0785 61.2425 54.8651 62.09 54.868 62.9506C54.871 63.8112 55.0903 64.6573 55.5057 65.411Z"
      fill="#A6B8F9"
    />
    <path
      d="M52.982 90.3006C53.024 89.0684 53.066 87.8364 53.1082 86.6045C53.1005 86.5008 53.0733 86.3994 53.0281 86.3056C52.9145 86.1744 52.7911 86.052 52.659 85.9394C52.4014 86.6478 52.297 87.4029 52.3527 88.1546C52.4084 88.9064 52.6228 89.6378 52.982 90.3006Z"
      fill="#A9BCF9"
    />
    <path
      d="M53.6146 83.916C53.6604 82.6801 53.7063 81.4443 53.7524 80.2085C52.4628 81.3981 52.9871 82.6552 53.6146 83.916Z"
      fill="#ACBEF9"
    />
    <path
      d="M40.2108 110.7C40.2561 109.894 40.3015 109.088 40.3471 108.283C40.1734 108.067 40.0283 107.214 39.817 107.783C39.5774 108.251 39.4867 108.781 39.557 109.303C39.6274 109.824 39.8555 110.312 40.2108 110.7Z"
      fill="#A7BCF8"
    />
    <path
      d="M47.3665 98.5504C48.4516 98.2596 49.4206 97.6415 50.1419 96.7803C48.9075 96.8829 47.6666 96.9788 47.3665 98.5504Z"
      fill="#AABCFA"
    />
    <path
      d="M54.2728 76.9216C54.3086 75.8894 54.3444 74.8572 54.3804 73.8251C53.0947 74.8138 53.5908 75.8644 54.2728 76.9216Z"
      fill="#AABDF9"
    />
    <path
      d="M54.9157 70.5491C54.9515 69.5169 54.9875 68.4847 55.0236 67.4527C53.7168 68.4405 54.2341 69.4919 54.9157 70.5491Z"
      fill="#A7BBF8"
    />
    <defs>
      <filter
        id="filter0_f_1932_734"
        x="37.5585"
        y="147.447"
        width="116.461"
        height="19.7763"
        filterUnits="userSpaceOnUse"
        color-interpolation-filters="sRGB"
      >
        <feFlood flood-opacity="0" result="BackgroundImageFix" />
        <feBlend
          mode="normal"
          in="SourceGraphic"
          in2="BackgroundImageFix"
          result="shape"
        />
        <feGaussianBlur
          stdDeviation="2.74671"
          result="effect1_foregroundBlur_1932_734"
        />
      </filter>
      <filter
        id="filter1_dii_1932_734"
        x="0.203238"
        y="0.223685"
        width="183.48"
        height="156.013"
        filterUnits="userSpaceOnUse"
        color-interpolation-filters="sRGB"
      >
        <feFlood flood-opacity="0" result="BackgroundImageFix" />
        <feColorMatrix
          in="SourceAlpha"
          type="matrix"
          values="0 0 0 0 0 0 0 0 0 0 0 0 0 0 0 0 0 0 127 0"
          result="hardAlpha"
        />
        <feOffset dx="-3.29605" dy="-3.29605" />
        <feGaussianBlur stdDeviation="8.24013" />
        <feComposite in2="hardAlpha" operator="out" />
        <feColorMatrix
          type="matrix"
          values="0 0 0 0 0 0 0 0 0 0 0 0 0 0 0 0 0 0 0.05 0"
        />
        <feBlend
          mode="normal"
          in2="BackgroundImageFix"
          result="effect1_dropShadow_1932_734"
        />
        <feBlend
          mode="normal"
          in="SourceGraphic"
          in2="effect1_dropShadow_1932_734"
          result="shape"
        />
        <feColorMatrix
          in="SourceAlpha"
          type="matrix"
          values="0 0 0 0 0 0 0 0 0 0 0 0 0 0 0 0 0 0 127 0"
          result="hardAlpha"
        />
        <feOffset dx="5.30399" dy="5.30399" />
        <feGaussianBlur stdDeviation="2.1216" />
        <feComposite in2="hardAlpha" operator="arithmetic" k2="-1" k3="1" />
        <feColorMatrix
          type="matrix"
          values="0 0 0 0 1 0 0 0 0 1 0 0 0 0 1 0 0 0 0.8 0"
        />
        <feBlend
          mode="normal"
          in2="shape"
          result="effect2_innerShadow_1932_734"
        />
        <feColorMatrix
          in="SourceAlpha"
          type="matrix"
          values="0 0 0 0 0 0 0 0 0 0 0 0 0 0 0 0 0 0 127 0"
          result="hardAlpha"
        />
        <feOffset dx="-5.30399" dy="-5.30399" />
        <feGaussianBlur stdDeviation="5.49342" />
        <feComposite in2="hardAlpha" operator="arithmetic" k2="-1" k3="1" />
        <feColorMatrix
          type="matrix"
          values="0 0 0 0 0.7875 0 0 0 0 0.774375 0 0 0 0 0.774375 0 0 0 0.25 0"
        />
        <feBlend
          mode="normal"
          in2="effect2_innerShadow_1932_734"
          result="effect3_innerShadow_1932_734"
        />
      </filter>
      <radialGradient
        id="paint0_radial_1932_734"
        cx="0"
        cy="0"
        r="1"
        gradientUnits="userSpaceOnUse"
        gradientTransform="translate(97.9861 157.335) rotate(180) scale(65.3717 784.461)"
      >
        <stop stop-color="#F8F7F8" />
        <stop offset="1" stop-color="#E7E5E7" stop-opacity="0" />
      </radialGradient>
      <linearGradient
        id="paint1_linear_1932_734"
        x1="52.9992"
        y1="7.73026"
        x2="105.78"
        y2="133.403"
        gradientUnits="userSpaceOnUse"
      >
        <stop stop-color="#F2F5FF" />
        <stop offset="1" stop-color="white" />
      </linearGradient>
      <linearGradient
        id="paint2_linear_1932_734"
        x1="95.4992"
        y1="10.7303"
        x2="92.4992"
        y2="161.73"
        gradientUnits="userSpaceOnUse"
      >
        <stop stop-color="#E3F0FF" />
        <stop offset="1" stop-color="#F7E9EB" stop-opacity="0" />
      </linearGradient>
      <radialGradient
        id="paint3_radial_1932_734"
        cx="0"
        cy="0"
        r="1"
        gradientUnits="userSpaceOnUse"
        gradientTransform="translate(90.0182 2.47368) rotate(89.4645) scale(51.5022 6394.12)"
      >
        <stop stop-color="#C2C2C2" />
        <stop offset="1" stop-color="#C2C2C2" stop-opacity="0" />
      </radialGradient>
    </defs>
  </svg>