<svg width="85" height="16" viewBox="0 0 85 16" fill="none" xmlns="http://www.w3.org/2000/svg">
<g clip-path="url(#clip0_68:1594)">
<path d="M28.0156 3.49511H29.3291C29.4781 3.49466 29.6264 3.51721 29.7697 3.5621C29.9086 3.60553 30.0406 3.67173 30.1613 3.75844C30.2808 3.84453 30.3892 3.94787 30.4835 4.06568C30.5774 4.18222 30.6532 4.31471 30.708 4.45791C31.0235 5.29567 31.3417 6.12604 31.6625 6.94902C31.9833 7.772 32.3041 8.60236 32.6249 9.44012C32.6799 9.57666 32.7183 9.72049 32.7391 9.86793C32.7554 9.99883 32.7663 10.1146 32.7717 10.2154C32.7859 10.0183 32.8215 9.82385 32.8778 9.63602C32.9453 9.40576 33.0242 9.17966 33.1142 8.95872L34.8518 4.44868C34.9005 4.31476 34.9723 4.19228 35.0632 4.08785C35.1626 3.97069 35.2749 3.86749 35.3977 3.78062C35.5235 3.69105 35.6592 3.61919 35.8015 3.56672C35.9393 3.51434 36.084 3.48717 36.2299 3.48633H37.5433L36.613 5.90166L37.649 8.59327C37.7579 8.87263 37.8639 9.14752 37.9671 9.41795C38.0639 9.65938 38.1218 9.91728 38.1383 10.1803C38.1437 10.1328 38.1504 10.0778 38.1586 10.0153C38.1668 9.95279 38.1817 9.8741 38.2034 9.77924C38.2308 9.66459 38.2635 9.55156 38.3015 9.44059C38.3449 9.31 38.4047 9.14953 38.4808 8.95919L40.2205 4.44913C40.2689 4.31586 40.3394 4.19353 40.4286 4.08832C40.5258 3.9705 40.6369 3.86719 40.7588 3.78108C40.8847 3.69152 41.0204 3.61965 41.1627 3.56717C41.3005 3.51479 41.4452 3.48763 41.5911 3.48679H42.9045L39.2987 12.8543H36.9818L35.7334 9.39623C35.69 9.27149 35.652 9.14384 35.6193 9.01324C35.5866 8.88256 35.5701 8.74769 35.5702 8.61222C35.5693 8.48195 35.5886 8.35244 35.6273 8.22922C35.5238 8.55016 35.3321 9.09378 35.0522 9.86008C34.7723 10.6264 34.3983 11.6246 33.9303 12.8548H31.6134L28.0156 3.49511Z" fill="#737373"/>
<path d="M43.4751 3.49365H45.2199C45.2481 3.49365 45.289 3.57527 45.3425 3.73851C45.4107 3.9665 45.4598 4.20078 45.4893 4.43845C45.545 4.2555 45.6503 4.09535 45.7912 3.97921C45.9526 3.83974 46.1311 3.72575 46.3215 3.64056C46.5227 3.54853 46.7318 3.47842 46.9457 3.43127C47.1347 3.3869 47.3274 3.36307 47.5207 3.36013H47.5533C48.1348 3.35501 48.7106 3.48559 49.2422 3.74313C49.7533 3.99031 50.216 4.34295 50.6047 4.7817C51.4066 5.69509 51.8533 6.91243 51.851 8.17803C51.8487 9.44363 51.3976 10.659 50.5925 11.569C50.1994 12.0059 49.7325 12.3554 49.2177 12.5983C48.6825 12.8526 48.1044 12.9817 47.5207 12.9771C47.1824 12.976 46.8463 12.9158 46.5253 12.7988C46.1894 12.6775 45.8808 12.4801 45.6195 12.2195V15.8739H43.4739L43.4751 3.49365ZM47.5135 5.6863C47.1405 5.68433 46.7725 5.78068 46.4407 5.9672C46.1155 6.14573 45.8343 6.407 45.6208 6.72903V9.59899C45.8385 9.92443 46.1233 10.1893 46.4521 10.372C46.781 10.5548 47.1446 10.6504 47.5135 10.651C47.814 10.6543 48.1116 10.5873 48.3864 10.4546C48.6476 10.3282 48.8833 10.1465 49.0799 9.92008C49.2775 9.69118 49.4339 9.42363 49.5408 9.13144C49.7638 8.51125 49.7638 7.82186 49.5408 7.20167C49.4352 6.90876 49.2786 6.64096 49.0799 6.41303C48.8823 6.18888 48.6468 6.00875 48.3864 5.88265C48.1115 5.75047 47.8139 5.684 47.5135 5.68769V5.6863Z" fill="#737373"/>
<path d="M54.8645 3.49363C54.8938 3.56228 54.9264 3.62921 54.9621 3.69413C55.0199 3.81333 55.048 3.94698 55.0438 4.08176V4.61628C55.0949 4.45798 55.1788 4.31463 55.2886 4.19726C55.4064 4.07022 55.5396 3.9614 55.6844 3.87385C55.8393 3.77926 56.0019 3.70025 56.1699 3.63778C56.3372 3.57459 56.5074 3.52107 56.6798 3.47745C56.8345 3.43799 56.9911 3.40822 57.1488 3.38829C57.2733 3.37196 57.3985 3.363 57.5239 3.36149C58.1037 3.35613 58.6779 3.48525 59.2086 3.74033C59.7158 3.98364 60.1735 4.33517 60.5547 4.77429C60.9368 5.21929 61.2381 5.73946 61.4427 6.30721C61.8723 7.50934 61.8723 8.84405 61.4427 10.0462C61.2375 10.6123 60.9362 11.131 60.5547 11.5749C60.1735 12.0141 59.7158 12.3656 59.2086 12.6089C58.4945 12.9492 57.7072 13.0635 56.9366 12.9388C56.7216 12.903 56.5109 12.841 56.3086 12.754C56.0819 12.6564 55.8667 12.5291 55.6679 12.3751C55.4351 12.1935 55.2252 11.9792 55.0438 11.7376V15.9981H53.7139V3.49363H54.8645ZM57.5239 11.5602C57.9312 11.5655 58.3349 11.4758 58.7079 11.2973C59.0586 11.1285 59.3736 10.8827 59.6336 10.5752C59.8963 10.2614 60.1014 9.89529 60.2375 9.49685C60.5256 8.64251 60.5256 7.70395 60.2375 6.8496C60.1013 6.45119 59.8963 6.0851 59.6336 5.77128C59.3736 5.46385 59.0585 5.21807 58.7079 5.04918C58.3348 4.87068 57.9312 4.78106 57.5239 4.7863C57.0622 4.78622 56.6055 4.88936 56.1817 5.08938C55.7551 5.28722 55.3684 5.57498 55.0438 5.93622V10.1788C55.1898 10.3972 55.3603 10.5948 55.5512 10.7669C55.7376 10.9364 55.9416 11.0814 56.1589 11.1989C56.3736 11.3148 56.5994 11.4045 56.8321 11.4664C57.0584 11.5282 57.2906 11.5601 57.5239 11.5615V11.5602Z" fill="#737373"/>
<path d="M62.8997 8.17464C62.8964 7.53273 63.0145 6.89699 63.2465 6.30723C63.6956 5.15129 64.538 4.231 65.596 3.74036C66.138 3.4906 66.7203 3.36194 67.3086 3.36194C67.8969 3.36194 68.4792 3.4906 69.0213 3.74036C70.0793 4.23092 70.9217 5.15124 71.3707 6.30723C71.5994 6.8994 71.7172 7.53562 71.7172 8.17834C71.7172 8.82107 71.5994 9.45727 71.3707 10.0494C70.9218 11.2055 70.0794 12.1258 69.0213 12.6163C68.4792 12.8661 67.8969 12.9948 67.3086 12.9948C66.7203 12.9948 66.138 12.8661 65.596 12.6163C64.5379 12.1258 63.6955 11.2054 63.2465 10.0494C63.0142 9.45721 62.8961 8.81897 62.8997 8.17464ZM64.2052 8.17464C64.2025 8.62956 64.2858 9.0802 64.45 9.49828C64.6067 9.90079 64.8325 10.2668 65.1152 10.5766C65.3972 10.8843 65.7311 11.1295 66.0984 11.2987C66.4818 11.4723 66.8927 11.5616 67.3078 11.5616C67.7228 11.5616 68.1338 11.4723 68.5172 11.2987C69.1789 10.996 69.7241 10.4518 70.0597 9.75912C70.3953 9.0664 70.5006 8.26794 70.3577 7.49987C70.2148 6.73179 69.8325 6.04165 69.2759 5.54708C68.7194 5.05251 68.0231 4.78414 67.3057 4.78771C66.891 4.78443 66.4802 4.87389 66.0984 5.05059C65.7311 5.21987 65.3973 5.46508 65.1152 5.77271C64.8326 6.08253 64.6068 6.44853 64.45 6.85101C64.2858 7.26909 64.2025 7.71971 64.2052 8.17464Z" fill="#737373"/>
<path d="M72.9017 8.17464C72.8984 7.53273 73.0165 6.89699 73.2485 6.30723C73.6976 5.15129 74.5399 4.231 75.598 3.74036C76.14 3.4906 76.7223 3.36194 77.3106 3.36194C77.8988 3.36194 78.4812 3.4906 79.0232 3.74036C80.0813 4.23092 80.9237 5.15124 81.3727 6.30723C81.6013 6.89942 81.7191 7.53563 81.7191 8.17834C81.7191 8.82105 81.6013 9.45725 81.3727 10.0494C80.9238 11.2055 80.0813 12.1258 79.0232 12.6163C78.4812 12.8661 77.8988 12.9948 77.3106 12.9948C76.7223 12.9948 76.14 12.8661 75.598 12.6163C74.5399 12.1258 73.6975 11.2054 73.2485 10.0494C73.0161 9.45721 72.898 8.81897 72.9017 8.17464ZM74.2071 8.17464C74.2044 8.62956 74.2878 9.0802 74.4519 9.49828C74.6086 9.90073 74.8342 10.2667 75.1167 10.5766C75.3988 10.8842 75.7327 11.1295 76.0999 11.2987C76.4817 11.4755 76.8926 11.5649 77.3072 11.5616C77.817 11.5614 78.319 11.424 78.7686 11.1614C79.2183 10.8988 79.6017 10.5192 79.8851 10.0561C80.1684 9.59305 80.3429 9.0608 80.3932 8.50649C80.4434 7.95217 80.3677 7.39289 80.1729 6.87812C79.9781 6.36335 79.6702 5.90898 79.2764 5.55521C78.8826 5.20145 78.415 4.9592 77.9151 4.8499C77.4151 4.74061 76.8982 4.76762 76.4102 4.92858C75.9221 5.08953 75.4778 5.37947 75.1167 5.77271C74.8343 6.08259 74.6086 6.44859 74.4519 6.85101C74.2878 7.26909 74.2044 7.71971 74.2071 8.17464Z" fill="#737373"/>
<path d="M85.0003 0.0812988V12.8538H83.6704V0.0812988H85.0003Z" fill="#737373"/>
<path d="M11.4138 6.93514L6.92293 2.02869C6.16241 1.19784 5.13095 0.731079 4.05544 0.731079C2.97994 0.731079 1.94848 1.19784 1.18796 2.02869C0.427476 2.85958 0.000244141 3.98649 0.000244141 5.16152C0.000244141 6.33655 0.427476 7.46346 1.18796 8.29435L5.67885 13.2008C6.43936 14.0316 7.47083 14.4984 8.54633 14.4984C9.62184 14.4984 10.6533 14.0316 11.4138 13.2008C12.1743 12.3699 12.6015 11.243 12.6015 10.068C12.6015 8.89293 12.1743 7.76603 11.4138 6.93514Z" fill="#5CC9F6"/>
<path d="M24.5061 5.17666C23.7456 4.3458 22.7142 3.87903 21.6387 3.87903C20.5631 3.87903 19.5317 4.3458 18.7712 5.17666C18.3946 5.58808 18.0958 6.07652 17.892 6.61409C17.6882 7.15166 17.5833 7.72784 17.5833 8.30971C17.5833 8.89158 17.6882 9.46776 17.892 10.0053C18.0958 10.5429 18.3946 11.0313 18.7712 11.4428C19.5317 12.2736 20.5631 12.7404 21.6387 12.7404C22.7142 12.7404 23.7456 12.2736 24.5061 11.4428C24.8828 11.0313 25.1815 10.5429 25.3853 10.0053C25.5892 9.46776 25.6941 8.89158 25.6941 8.30971C25.6941 7.72784 25.5892 7.15166 25.3853 6.61409C25.1815 6.07652 24.8828 5.58808 24.5061 5.17666Z" fill="#FA8807"/>
<path d="M7.33677 5.16377L5.66009 6.9956L5.65289 6.98729C4.99754 7.68494 4.14552 8.11997 3.23526 8.22171C2.32499 8.32345 1.40999 8.0859 0.638916 7.54768C0.79698 7.81748 0.981294 8.06781 1.18865 8.29429L2.99854 10.2717L3.01672 10.2642L5.70068 13.1966L13.0531 5.16377C12.6778 4.75361 12.2323 4.42823 11.7418 4.20625C11.2514 3.98426 10.7258 3.87 10.195 3.87C9.66411 3.87 9.13847 3.98426 8.64806 4.20625C8.15764 4.42823 7.71206 4.75361 7.33677 5.16377Z" fill="#00AEEB"/>
<path d="M21.6212 2.06791L21.6174 2.06375C21.247 1.6455 20.8035 1.31267 20.3132 1.0849C19.823 0.857136 19.2959 0.739061 18.7632 0.737683C18.2304 0.736305 17.7028 0.851639 17.2116 1.07687C16.7204 1.30209 16.2755 1.63265 15.9032 2.04897L8.55452 10.0776C7.83921 10.8586 6.88265 11.3194 5.87245 11.3696C4.86225 11.4199 3.87131 11.056 3.09399 10.3493L5.70057 13.197L5.70353 13.1943C6.46309 14.0241 7.49326 14.4903 8.56742 14.4903C9.64158 14.4903 10.6718 14.0241 11.4313 13.1943L18.5884 5.37492L18.6002 5.37861C18.6556 5.31024 18.7123 5.24278 18.7724 5.17718C19.2722 4.63049 19.8943 4.23624 20.5768 4.03361C21.2593 3.83099 21.9784 3.82705 22.6628 4.02218C22.477 3.28289 22.118 2.60931 21.6212 2.06791Z" fill="#0080CA"/>
<path d="M22.66 4.02265C21.9757 3.82752 21.2565 3.83146 20.574 4.03408C19.8915 4.23671 19.2694 4.63096 18.7696 5.17765C18.7096 5.24325 18.6529 5.31071 18.5975 5.37908L18.5861 5.37539L11.429 13.1947C11.4159 13.2091 11.4023 13.222 11.3896 13.2359L11.3943 13.2414C12.1548 14.0723 13.1863 14.539 14.2618 14.539C15.3373 14.539 16.3688 14.0723 17.1293 13.2414L21.6202 8.33495C22.1274 7.78109 22.491 7.09002 22.6737 6.33237C22.8564 5.57472 22.8516 4.77766 22.66 4.02265Z" fill="#EE5913"/>
<path d="M10.5817 3.48255C10.9386 3.48255 11.2278 3.16649 11.2278 2.77662C11.2278 2.38674 10.9386 2.07068 10.5817 2.07068C10.2248 2.07068 9.93555 2.38674 9.93555 2.77662C9.93555 3.16649 10.2248 3.48255 10.5817 3.48255Z" fill="#5CC9F6"/>
<path d="M9.15538 2.10999C9.38426 2.10999 9.5698 1.90728 9.5698 1.65723C9.5698 1.40718 9.38426 1.20447 9.15538 1.20447C8.92651 1.20447 8.74097 1.40718 8.74097 1.65723C8.74097 1.90728 8.92651 2.10999 9.15538 2.10999Z" fill="#5CC9F6"/>
<path d="M10.0707 0.905521C10.2995 0.905521 10.4851 0.702813 10.4851 0.45276C10.4851 0.202708 10.2995 0 10.0707 0C9.84179 0 9.65625 0.202708 9.65625 0.45276C9.65625 0.702813 9.84179 0.905521 10.0707 0.905521Z" fill="#5CC9F6"/>
</g>
<defs>
<clipPath id="clip0_68:1594">
<rect width="85" height="16" fill="white"/>
</clipPath>
</defs>
</svg>
